# xmcd
#
# Track frame offsets: 
#        150
#        9774
#        23085
#        42856
#        62286
#        80946
#        109410
#        133578
#        155418
#        175583
#        193209
#        216881
#        226775
#        249716
#
# Disc length: 3555 seconds
#
# Revision: 0
# Processed by: cddbd v1.5.2PL0 Copyright (c) Steve Scherf et al.
# Submitted via: ExactAudioCopy v0.99pb5
#
DISCID=b20de10e
DTITLE=Ewa Demarczyk - Ewa Demarczyk spiewa piosenki Zygmunta Konieczn
DTITLE=ego
DYEAR=1999
DGENRE=Other
TTITLE0=Karuzela Z Madonnami
TTITLE1=Garbus
TTITLE2=Tomaszow
TTITLE3=Grande Valse Brillante
TTITLE4=Jaki Smieszny
TTITLE5=Taki Pejzaz
TTITLE6=Wiersze Wojenne
TTITLE7=Pocalunki
TTITLE8=Czarne Anioly
TTITLE9=Groszki I Roze
TTITLE10=Deszcze
TTITLE11=Karuzela Z Madonnami
TTITLE12=Taki Pejzaz
TTITLE13=Czarne Anioly
EXTD=
EXTT0=
EXTT1=
EXTT2=
EXTT3=
EXTT4=
EXTT5=
EXTT6=
EXTT7=
EXTT8=
EXTT9=
EXTT10=
EXTT11=
EXTT12=
EXTT13=
PLAYORDER=
